PathFileType	4	(X/Y/Z)	regression/subject18/trials/walk2/markers.trc
DataRate	CameraRate	NumFrames	NumMarkers	Units	OrigDataRate	OrigDataStartFrame	OrigNumFrames
200.00000000000426	200.00000000000426	4	64	m	200.00000000000426	188	215
Frame#	Time	CLAV			C7			RACR			RASH			RPSH			RLEL			RMEL			RUA1			RUA2			RUA3			RFAsuperior			RFAradius			RFAulna			RASI			RPSI			RCAL			RTOE			RMT5			RTH1			RTH2			RTH3			RTB1			RTB2			RTB3			RLFC			RMFC			RLMAL			RMMAL			RHJC			RKJC			REJC			RAJC			RSJC			LACR			LASH			LPSH			LLEL			LMEL			LUA1			LUA2			LUA3			LFAsuperior			LFAradius			LFAulna			LASI			LPSI			LCAL			LTOE			LMT5			LTH1			LTH2			LTH3			LTB1			LTB2			LTB3			LLFC			LMFC			LLMAL			LMMAL			LHJC			LKJC			LEJC			LAJC			LSJC			
		X1	Y1	Z1	X2	Y2	Z2	X3	Y3	Z3	X4	Y4	Z4	X5	Y5	Z5	X6	Y6	Z6	X7	Y7	Z7	X8	Y8	Z8	X9	Y9	Z9	X10	Y10	Z10	X11	Y11	Z11	X12	Y12	Z12	X13	Y13	Z13	X14	Y14	Z14	X15	Y15	Z15	X16	Y16	Z16	X17	Y17	Z17	X18	Y18	Z18	X19	Y19	Z19	X20	Y20	Z20	X21	Y21	Z21	X22	Y22	Z22	X23	Y23	Z23	X24	Y24	Z24	X25	Y25	Z25	X26	Y26	Z26	X27	Y27	Z27	X28	Y28	Z28	X29	Y29	Z29	X30	Y30	Z30	X31	Y31	Z31	X32	Y32	Z32	X33	Y33	Z33	X34	Y34	Z34	X35	Y35	Z35	X36	Y36	Z36	X37	Y37	Z37	X38	Y38	Z38	X39	Y39	Z39	X40	Y40	Z40	X41	Y41	Z41	X42	Y42	Z42	X43	Y43	Z43	X44	Y44	Z44	X45	Y45	Z45	X46	Y46	Z46	X47	Y47	Z47	X48	Y48	Z48	X49	Y49	Z49	X50	Y50	Z50	X51	Y51	Z51	X52	Y52	Z52	X53	Y53	Z53	X54	Y54	Z54	X55	Y55	Z55	X56	Y56	Z56	X57	Y57	Z57	X58	Y58	Z58	X59	Y59	Z59	X60	Y60	Z60	X61	Y61	Z61	X62	Y62	Z62	X63	Y63	Z63	X64	Y64	Z64	

189	3.38	1.965088801879336	1.448644973880405	-0.5083087897445282	1.857534265915202	1.527960480925664	-0.5212618365148608	1.919666891518975	1.50038738573098	-0.389437531274631	1.954240210594844	1.439663042210606	-0.346740564609206	1.858478517979255	1.463243745619666	-0.3579574745999839	1.791423966119563	1.190171223718428	-0.2783051389543152	1.787614521718382	1.174419991238118	-0.3591089606779599	1.884761540045509	1.407390732729063	-0.3273943971070322	1.817348854199845	1.267081656946851	-0.3090275938800796	1.873161617059315	1.32149936948829	-0.3127020381332838	1.809130333621682	1.101511948418877	-0.3031557604262706	1.825453808512031	0.9506835071263795	-0.2707304667253962	1.764644551771774	0.9448612634429961	-0.2887137443240098	1.949411728373479	1.04223974367564	-0.3895826047033369	1.790383677683209	1.070259063098365	-0.4699505953373775	1.884721589267402	0.1229349197197072	-0.4096138994526861	2.128364543562888	0.07338289060530769	-0.471994864574518	2.069939657012153	0.05149710264178251	-0.3733413382926554	1.974073372602745	0.820526273092076	-0.3641256915441974	2.076724743467387	0.7772874005911684	-0.4303750991553693	2.043783171565333	0.6754440121598735	-0.3639005383302036	2.050643262987301	0.3950227836785936	-0.3825251308303305	2.061487906756839	0.3047015458123018	-0.4374977477400157	2.022957939852245	0.2395695726055287	-0.3771123969569722	2.087564427882742	0.5720826455523064	-0.3717066640901637	2.08620120856322	0.5677749683640577	-0.4839398543287857	1.976897145611977	0.1423612509816376	-0.3753412775748141	1.975835630996224	0.1415891578468611	-0.4620309724542706	1.87744229255089	0.9483188038504906	-0.4398025015719965	2.093215572097379	0.5666652762683591	-0.4308276432644954	1.792425121789634	1.176430112557901	-0.3236619479146656	1.960863776241784	0.1330609450657138	-0.4237942183848729	1.909380645689071	1.45070942272258	-0.3519951260943859	1.948033514453595	1.49873772151715	-0.6350788059949929	1.991335025201655	1.437505789007904	-0.6679637700127562	1.887912397176818	1.46297294868969	-0.6800780328027964	1.933542212543088	1.175998272038818	-0.7862282853539682	1.910835009099954	1.151041186761445	-0.7110392133074173	1.94336471263233	1.40328627407902	-0.7052983422688737	1.926604638049697	1.25315824464549	-0.74712083739951	1.961226680335198	1.319481049156256	-0.72492954932	1.977153978060669	1.099209736654156	-0.7522503695980033	2.066539613449777	0.9735767420404051	-0.7693860941894779	2.012049624062582	0.9411908311105244	-0.775473485241909	1.936088375409324	1.041399808027456	-0.6601588729309265	1.785716604546867	1.069964839781574	-0.5647314839150455	1.619739498183658	0.06660147122927439	-0.6061702857069721	1.86582572940978	0.04655599334592729	-0.5372614822485645	1.81181586423611	0.01165833216525467	-0.6346784265608226	1.885776751139058	0.7841263565512002	-0.6683692709894571	1.942857059323621	0.6956885546629153	-0.5927618529731342	1.864631731201624	0.6247103181245113	-0.6614566718574478	1.79236117219512	0.3434917158456435	-0.6361544049945866	1.799616252330584	0.25407603532084	-0.579148082480319	1.759923350297151	0.1888866755977488	-0.6387127010027754	1.844071102313964	0.5147701769381312	-0.649138717207522	1.832269744775244	0.5180113862617216	-0.5374833278921203	1.710884927467732	0.09313043077016991	-0.6391202372196153	1.708587935326192	0.09424693946940693	-0.5524582306953735	1.869429446539473	0.9478136551070397	-0.6025307560500103	1.839582138727553	0.5147331242192663	-0.5908417152619591	1.925043516053415	1.158105887251046	-0.7431621119431562	1.693893654973648	0.08536843708388753	-0.5907229210783275	1.946475460295882	1.448552169519879	-0.6732183314979362	
190	3.385	1.970952771966635	1.44798514956353	-0.5078974335479242	1.863472071698624	1.527364310976416	-0.5210715402814461	1.92533472724155	1.499777694652728	-0.3891231539931325	1.959788729414267	1.439040103375915	-0.3463486523536751	1.864063248495116	1.462677550538057	-0.3577536429307951	1.795984623927842	1.189894001357621	-0.2784906041038293	1.79246899929398	1.174151541761151	-0.3593094518172699	1.890108655093528	1.406861116181207	-0.3271928721150519	1.822243548584147	1.266733950803008	-0.3091055488718551	1.878217070481326	1.321001493875634	-0.3125482356288576	1.813331017090291	1.101146549841549	-0.3032171709960884	1.828639290360229	0.9502388538145012	-0.2706657001213446	1.767896032952479	0.9447502940362926	-0.2889740285829177	1.955418307232216	1.041582405391586	-0.3896484623560766	1.79617539888219	1.0697328548952	-0.4695438027632789	1.904701917500763	0.115945300263952	-0.4092377339578001	2.149802660698433	0.07328810666549788	-0.4710007252630431	2.091818298296296	0.04993828057513271	-0.3724229759000955	1.979622806603096	0.8197822496017558	-0.3639164006030559	2.082264762687495	0.776426912181843	-0.4301042515482645	2.049145092360878	0.6746100624036149	-0.3636775498226905	2.061394266652135	0.3931062459194559	-0.382135466134101	2.075405952534648	0.3031259201100891	-0.4369509251220216	2.038921351330703	0.2368196355826377	-0.3765731694513957	2.092798357449605	0.5711941503326907	-0.3714780426742385	2.091508373477475	0.5669153815140322	-0.483713204364139	1.996140517561205	0.1381242057669822	-0.3747832481308526	1.995334844902676	0.1372010327485255	-0.4614742210318807	1.883209921923458	0.9477177262652139	-0.4396299766925296	2.098316531050045	0.5660147604106962	-0.430571728180297	1.797137508163829	1.176149400136717	-0.3238427524860628	1.980556172958596	0.1282268163432603	-0.4232643989271795	1.91494612787769	1.45011306549902	-0.351691320189527	1.954171513633678	1.498064658514116	-0.6347092443825113	1.99749837315782	1.436799979194653	-0.6674996936320935	1.894114853765136	1.462328422129766	-0.6798170834553832	1.940928736724269	1.175330024367023	-0.7860102927585898	1.918001810299332	1.150278115323613	-0.7109194967383214	1.949796783187295	1.402611614294547	-0.7049522290071455	1.933622323020205	1.252454061109565	-0.746899129731336	1.967970992774374	1.318865187764554	-0.7245477400798117	1.985004998226829	1.098951094995998	-0.7517215085348665	2.0755437588923	0.9740537497168387	-0.7681671817101182	2.021360675066982	0.941176953877103	-0.774361713370456	1.941279693083452	1.040693767828349	-0.6601831996215572	1.791222745713252	1.069421571653625	-0.5643101433485528	1.619849863346646	0.06696451451934309	-0.6059746139696474	1.865973656436258	0.04641753920722655	-0.5373482498125509	1.811784940367149	0.01164817665813413	-0.6347117327504979	1.889773545232888	0.7833850736177451	-0.6682014057587427	1.946137157027487	0.6944837143995581	-0.5925999531338236	1.867367660571373	0.6241397722291994	-0.6613253952308223	1.7934901618601	0.343330952192228	-0.6360615981358523	1.800441873517995	0.2538763655717526	-0.5790785168250651	1.760452358810464	0.1888531172124601	-0.6386263023332602	1.845936087080311	0.5143631199258221	-0.649033919409934	1.834137279044977	0.5176751535221924	-0.5373803390678249	1.711043438373722	0.09328744309663189	-0.6390160906181919	1.708815733638706	0.09439534736024469	-0.5523521649100995	1.874706766727189	0.9471832875264568	-0.6023332538840465	1.841407419045313	0.5143791962264336	-0.5907502954674738	1.932314295103906	1.15739606070827	-0.7429844294816808	1.694058530553089	0.08558149606543991	-0.5906075853395641	1.952655771621243	1.447872941317758	-0.6728423614679454	
191	3.39	1.976836204198742	1.447282590104327	-0.5074735363555376	1.869424021923412	1.526718182464466	-0.5208645426727089	1.931027355985009	1.499127745867222	-0.3887956847387818	1.965368579546088	1.43838095648741	-0.3459436230065449	1.869677452209306	1.462068746825909	-0.3575309934375366	1.800588362301964	1.189577552331341	-0.2786581130223832	1.797370879574629	1.173839345167658	-0.3594902071225196	1.895487925108827	1.406292718786244	-0.3269756323572703	1.827178200142827	1.26634608765212	-0.3091664119969809	1.883308577770993	1.320465663497276	-0.3123766603487149	1.817597516714502	1.100747294300684	-0.3032590321132526	1.831930784313332	0.9497706378274139	-0.2705836461644906	1.771260070735013	0.9445974334991623	-0.2892213759317057	1.961465059725569	1.040835688413686	-0.3897025488385008	1.802005968180784	1.069151955158532	-0.4691066057068997	1.924660796911124	0.1092718146444914	-0.4088398815478923	2.171018156518585	0.07346858898300318	-0.4699533659534628	2.113492266060444	0.04869249264759665	-0.3714551918156989	1.985129543813899	0.8189103219617854	-0.3637178151457238	2.087725158947567	0.7753725706677652	-0.4298577577823453	2.054373839775876	0.6736053470868542	-0.3634709226598201	2.071956289299038	0.391176175975711	-0.3817440491501754	2.089135853884551	0.3016410953827046	-0.4363870068111812	2.05472631949176	0.2342310866862125	-0.3760131917662605	2.097833517660732	0.5701077465995418	-0.3712689482181344	2.096597757703799	0.5658549818261102	-0.4835057083723757	2.01527753326895	0.1341576910896605	-0.3741965514146535	2.014749259634109	0.1330878996043679	-0.4608879732078518	1.889003694638111	0.9470458859300643	-0.4394579926763885	2.103191110210515	0.5651594616122317	-0.4303329548241381	1.801895565876951	1.175827114199458	-0.3240043062216165	2.000171800355496	0.1236755563566453	-0.4227062801422004	1.920542070945173	1.44947750187148	-0.351371726684943	1.96031714509572	1.497342150384021	-0.6343276428167436	2.003670611460096	1.436045947009377	-0.6670238758777258	1.900324193936371	1.461628760574956	-0.6795382359431967	1.948304848749075	1.174622454351258	-0.7857917280487906	1.925159560440912	1.14947130216175	-0.7108011624978928	1.956233434344586	1.401888825360199	-0.7045937772983675	1.940635264382291	1.251707256043723	-0.7466727477233973	1.974714184112371	1.318202346799568	-0.7241586718546706	1.992841317290472	1.098657251252378	-0.7511914648399999	2.08452627743716	0.974508899359865	-0.7669435761931165	2.030655378674918	0.9411429855885746	-0.7732447320200361	1.946490140111708	1.039954644875622	-0.6601923077923499	1.79676036332165	1.068843332048455	-0.5638571907184454	1.619964042922119	0.06734054441030216	-0.6057786988033987	1.866122645461391	0.0462714708125094	-0.5374360758630905	1.81175135994298	0.01163217618710412	-0.6347441223444916	1.893786471475406	0.7826183800600698	-0.6680349621418427	1.949439095252132	0.6932610156900215	-0.5924443877031204	1.870129223669972	0.6235525736489935	-0.6611958788962459	1.794642159628868	0.3431652770292849	-0.6359697387462059	1.801285233490965	0.25367155946137	-0.5790112889461678	1.760991953546476	0.188819800015521	-0.6385413129740554	1.847834120266694	0.5139450921281647	-0.6489307058443394	1.836045721886083	0.5173261734105927	-0.5372780955130461	1.711205359206325	0.0934502623421144	-0.6389124339974808	1.709050535599305	0.0945481758923542	-0.5522465383958064	1.879997573939963	0.9465160143415192	-0.6021342192984335	1.843270980318448	0.5140129509501876	-0.5906598106177919	1.939575138539795	1.156644138937113	-0.7428076274742887	1.694228381432379	0.08580101910057791	-0.5904921551865465	1.95884410285918	1.447142492393447	-0.6724519795561238	
192	3.395	1.982739750771185	1.446537085421353	-0.507037136332893	1.875390811206901	1.526022181618351	-0.5206398545141581	1.936746230811301	1.498436784020084	-0.3884545886195938	1.970981352618105	1.437684540260388	-0.3455254311230112	1.875322656358304	1.461416531949781	-0.3572887986655019	1.805236686668664	1.18922111708701	-0.2788061816300066	1.802319736688583	1.173483154191141	-0.3596497263515425	1.900901181096931	1.40568458544169	-0.3267420183373546	1.832154127265991	1.265917363722179	-0.3092088285837019	1.888437736574692	1.319890875259938	-0.3121868904180166	1.821930697492623	1.100313181295071	-0.3032808194236906	1.835330141659959	0.9492769362167032	-0.270484756009895	1.774737687966889	0.9444009005753295	-0.2894542402379186	1.967550914433178	1.04000291230347	-0.3897436212808352	1.807875182940956	1.068515997697238	-0.4686402740587889	1.944548376230138	0.1029473851670902	-0.4084256683317518	2.191965198231309	0.07394500752530053	-0.4688612196131063	2.134913582070342	0.04777982901976076	-0.3704464348585196	1.990604089951325	0.8179183028882929	-0.363530930010263	2.093116304144293	0.7741374991817089	-0.4296397434350397	2.059487670929872	0.6724419818970585	-0.3632829279916977	2.082325533873779	0.3892492810145535	-0.3813553443636475	2.10265818926223	0.3002629009950863	-0.4358120079960435	2.070344217623982	0.2318233793899808	-0.3754384873757012	2.102693440906645	0.5688382353798583	-0.3710823676772631	2.101489407579661	0.5646077083934996	-0.4833203130699653	2.034263765285649	0.1304874733385453	-0.3735873994145348	2.034032201121314	0.1292783480209415	-0.4602782901319892	1.894824887113275	0.9463048300034336	-0.4392852703785404	2.107861993367599	0.5641124565900757	-0.4301143285307626	1.806699684325543	1.175462761981759	-0.3241452141552071	2.019663437979609	0.119436867407294	-0.4221257002474089	1.926170036355201	1.448801791767284	-0.351035980648291	1.966470405919314	1.496570710451374	-0.6339337399106186	2.009851427759354	1.435244290208998	-0.6665366289651208	1.906540035798769	1.460874841233542	-0.6792410659110109	1.955672105819427	1.173875208935336	-0.7855706761353063	1.932310590550164	1.148620750410669	-0.7106819474912628	1.962674542252998	1.401118337211388	-0.7042226607784773	1.947644524288471	1.250917735378826	-0.7464402423018766	1.981456841406545	1.317492946422413	-0.7237615747389698	2.000664230180165	1.098327559175807	-0.7506586853642782	2.093487029299542	0.9749406975120708	-0.7657147319644314	2.039933235301045	0.9410879840229873	-0.7721215594002757	1.95172266249503	1.039182860458033	-0.6601849792674093	1.802330662007336	1.068228739531178	-0.5633739045653576	1.620082587848925	0.06773162826086436	-0.6055829725490075	1.866272796802103	0.04611802081600537	-0.5375248314817744	1.811715255400207	0.01161123085843088	-0.6347756898538266	1.897820335824506	0.7818261421124415	-0.6678688204726025	1.952768468727965	0.6920204400192868	-0.5922941778578293	1.872922340493929	0.6229482156172614	-0.6610670924800461	1.795821749608231	0.3429945225482209	-0.6358782207202807	1.802149286761382	0.2534613246448475	-0.5789458954133225	1.761544441762332	0.1887872298174935	-0.6384574984293196	1.849771890614257	0.5135152688784177	-0.648828099485645	1.838001847178296	0.5169632763885974	-0.537175599457498	1.711371617541402	0.09362024341031433	-0.6388093943165344	1.709292873149628	0.09470662975508198	-0.5521414952659339	1.885305560728129	0.9458116396498832	-0.6019323879993737	1.845179710822392	0.5136332151444883	-0.5905691959386508	1.946828086416706	1.155850013879884	-0.7426295975311935	1.694403807503393	0.08602852275791106	-0.5903768505398154	1.96504011149645	1.446361541715894	-0.6720471784904005	
